<?xml version="1.0" standalone="no"?>
<!DOCTYPE svg PUBLIC "-//W3C//DTD SVG 20010904//EN"
 "http://www.w3.org/TR/2001/REC-SVG-20010904/DTD/svg10.dtd">
<svg version="1.0" xmlns="http://www.w3.org/2000/svg"
 width="100.000000pt" height="83.000000pt" viewBox="0 0 100.000000 83.000000"
 preserveAspectRatio="xMidYMid meet">

<g transform="translate(0.000000,83.000000) scale(0.100000,-0.100000)"
fill="#000000" stroke="none">
<path d="M80 805 c0 -22 4 -25 33 -25 30 0 32 -2 31 -32 -1 -32 -3 -33 -45
-36 -31 -2 -52 -11 -71 -30 -26 -24 -28 -31 -28 -112 0 -83 1 -87 30 -115 25
-24 38 -29 70 -26 l40 3 0 -66 c0 -36 1 -69 2 -73 1 -5 -6 -9 -15 -11 -12 -3
-17 4 -17 22 0 25 -3 26 -55 26 l-55 0 0 -100 0 -100 55 0 c52 0 55 1 55 26 0
19 4 25 18 22 12 -2 17 -13 17 -38 0 -32 -3 -35 -32 -38 -31 -3 -33 -6 -33
-43 l0 -39 175 0 175 0 0 40 c0 39 -1 40 -35 40 -34 0 -35 1 -35 40 l0 41 133
-3 132 -3 3 -37 c3 -37 3 -38 -32 -38 -34 0 -36 -2 -36 -35 l0 -35 175 0 175
0 0 35 c0 33 -2 35 -36 35 -35 0 -35 1 -32 38 3 37 3 37 55 42 36 4 60 13 77
29 25 24 26 28 26 148 l0 123 -36 15 c-20 8 -56 15 -80 15 l-44 0 0 56 c0 48
2 55 18 52 9 -2 16 -11 16 -21 -2 -14 8 -17 62 -17 l64 0 0 65 0 65 -81 0 -80
0 3 38 c3 34 6 37 36 40 24 3 32 8 32 23 0 19 -7 19 -147 17 l-147 -3 -33 -57
-34 -58 -57 0 -57 0 -33 60 -33 60 -145 0 -144 0 0 -25z m63 -240 c0 -38 -4
-51 -17 -53 -13 -3 -16 6 -16 53 0 47 3 56 16 53 13 -2 17 -15 17 -53z m256
-47 c1 -5 -8 -8 -19 -8 -17 0 -20 6 -19 48 l0 47 19 -40 c10 -22 19 -43 19
-47z m231 32 c0 -33 -3 -40 -20 -40 -23 0 -24 3 -8 47 16 45 28 42 28 -7z
m-170 -188 c14 -34 28 -62 31 -62 4 0 18 27 31 61 14 33 28 60 31 60 4 -1 23
-1 42 -1 l35 0 0 -70 0 -70 -135 0 -135 0 0 69 c0 73 4 80 50 77 21 -1 29 -12
50 -64z m420 -12 c0 -63 -2 -70 -20 -70 -18 0 -20 7 -20 70 0 63 2 70 20 70
18 0 20 -7 20 -70z"/>
</g>
</svg>
