<?xml version="1.0" encoding="iso-8859-1"?>
<!-- Generator: Adobe Illustrator 25.0.0, SVG Export Plug-In . SVG Version: 6.00 Build 0)  -->
<svg version="1.1" id="Layer_1" xmlns="http://www.w3.org/2000/svg" xmlns:xlink="http://www.w3.org/1999/xlink" x="0px" y="0px"
	 viewBox="0 0 841.89 595.276" style="enable-background:new 0 0 841.89 595.276;" xml:space="preserve">
<polygon style="fill:#020203;" points="101.182,529.632 101.182,580.522 352.954,580.522 352.954,529.632 302.064,529.632 
	302.064,168.044 393.13,393.032 489.554,168.044 489.554,524.275 438.664,524.275 438.664,580.522 690.436,580.522 690.436,532.31 
	644.902,532.31 644.902,42.158 690.436,42.158 690.436,12.696 481.518,12.696 446.699,93.048 360.989,93.048 312.778,12.696 
	101.182,12.696 101.182,47.515 149.394,47.515 149.394,529.632 "/>
<polygon style="fill:#E83F2A;" points="129.495,505.702 50.292,505.702 50.292,365.836 129.467,365.836 129.467,391.266 
	671.981,391.266 671.981,292.37 447.052,292.37 352.689,292.37 87.084,292.37 51.734,257.021 51.734,132.724 91.307,93.151 
	757.396,93.151 757.396,193.475 666.33,193.475 666.33,160.98 129.467,160.98 129.467,237.271 711.539,237.271 757.396,257.05 
	757.396,439.301 710.126,471.795 129.467,471.795 "/>
</svg>
